# xmcd
#
# Track frame offsets:
#	150
#	15375
#	29100
#	49575
#	61200
#	72075
#	88650
#	104625
#	122550
#	143025
#	157350
#	177825
#	191925
#	207000
#	225750
#	240725
#	261300
#	276600
#	290100
#	300975
#	312825
#
# Disc length: 4347 seconds
# Revision: 7
# Processed by: cddbd v1.5.2PL0 Copyright (c) Steve Scherf et al.
# Submitted via: dBpowerAMP V12.0
#
DISCID=3610f915
DTITLE=Various Artist - All That Blues
DYEAR=1994
DGENRE=Blues
TTITLE0=Willie Dixon - That's My Baby
TTITLE1=Lonnie johnson - No Love for Sale
TTITLE2=Memphis SLim - Grinder Man Blues
TTITLE3=Odetta - Weeping Willow Blues
TTITLE4=Alberta Hunter - St. Louis Blues
TTITLE5=Otis Span - The Blues Never Die
TTITLE6=Fred McDowell - Milk Cow Blues
TTITLE7=Reverend Gary Davis - Say No to the Devil
TTITLE8=Linghtnin' Hopkins - Automobile Blues
TTITLE9=Sonny Terry - One Monkey Don't Stop the Show
TTITLE10=Memphis Span - Steady Rolling Blues
TTITLE11=Pink Anderson - I've Got Mine
TTITLE12=Lightinin' Hopkins - Back to New Orleans
TTITLE13=Billie ans Dede Pierce - Nobody Knows You When You're Down and Out
TTITLE14=Sonny Terry - Ida Mae
TTITLE15=Jesse Fuller - Leavin Memphis, Frisco Bound
TTITLE16=Lightnin' Hopkins - The Walkin Blues
TTITLE17=Jimmy Witherspoon - Baby, Baby, Baby
TTITLE18=Jesse Fuller - You Can't Keep a Good Man Down
TTITLE19=Big Joe Williams - Rollin and Tumblin
TTITLE20=King Curtis - Trouble in Mind
EXTD=
EXTT0=
EXTT1=
EXTT2=
EXTT3=
EXTT4=
EXTT5=
EXTT6=
EXTT7=
EXTT8=
EXTT9=
EXTT10=
EXTT11=
EXTT12=
EXTT13=
EXTT14=
EXTT15=
EXTT16=
EXTT17=
EXTT18=
EXTT19=
EXTT20=
PLAYORDER=
